<?xml version="1.0" standalone="no"?>
<!DOCTYPE svg PUBLIC "-//W3C//DTD SVG 20010904//EN"
 "http://www.w3.org/TR/2001/REC-SVG-20010904/DTD/svg10.dtd">
<svg version="1.0" xmlns="http://www.w3.org/2000/svg"
 width="64.000000pt" height="64.000000pt" viewBox="0 0 64.000000 64.000000"
 preserveAspectRatio="xMidYMid meet">

<g transform="translate(0.000000,64.000000) scale(0.100000,-0.100000)"
fill="#000000" stroke="none">
<path d="M34 466 c-14 -36 43 -99 134 -148 45 -24 55 -37 108 -133 40 -74 67
-111 86 -121 38 -20 44 -4 28 71 -6 31 -10 59 -7 61 15 15 57 -25 87 -84 44
-85 62 -87 73 -8 5 33 6 69 3 82 -3 12 -34 46 -68 74 -35 29 -63 57 -63 63 0
6 37 26 83 45 45 19 82 40 82 47 0 7 -13 18 -29 25 -23 9 -61 9 -183 -3 l-153
-14 -54 29 c-58 30 -118 37 -127 14z m151 -41 c47 -24 85 -40 85 -35 0 6 -4
10 -10 10 -5 0 -10 4 -10 8 0 5 63 14 140 21 105 9 144 9 161 1 27 -15 20 -20
-76 -60 -44 -17 -83 -35 -87 -39 -4 -4 16 -26 45 -49 104 -82 108 -88 100
-165 -7 -77 -11 -77 -57 10 l-31 58 -180 96 c-157 84 -183 101 -202 135 -13
21 -23 42 -23 47 0 20 69 2 145 -38z m180 -228 c29 -128 29 -127 12 -127 -21
0 -40 26 -92 123 l-48 89 61 -31 c42 -21 63 -38 67 -54z"/>
<path d="M135 399 c-4 -6 -5 -12 -2 -15 2 -3 7 2 10 11 7 17 1 20 -8 4z"/>
<path d="M176 373 c-6 -14 -5 -15 5 -6 7 7 10 15 7 18 -3 3 -9 -2 -12 -12z"/>
<path d="M220 349 c0 -5 5 -7 10 -4 6 3 10 8 10 11 0 2 -4 4 -10 4 -5 0 -10
-5 -10 -11z"/>
<path d="M267 333 c-4 -3 -7 -11 -7 -17 0 -6 5 -5 12 2 6 6 9 14 7 17 -3 3 -9
2 -12 -2z"/>
<path d="M311 304 c0 -11 3 -14 6 -6 3 7 2 16 -1 19 -3 4 -6 -2 -5 -13z"/>
<path d="M396 253 c-6 -14 -5 -15 5 -6 7 7 10 15 7 18 -3 3 -9 -2 -12 -12z"/>
</g>
</svg>
